<?xml version="1.0" standalone="no"?><!DOCTYPE svg PUBLIC "-//W3C//DTD SVG 1.1//EN" "http://www.w3.org/Graphics/SVG/1.1/DTD/svg11.dtd"><svg t="1776416764952" class="icon" viewBox="0 0 1024 1024" version="1.1" xmlns="http://www.w3.org/2000/svg" p-id="15676" xmlns:xlink="http://www.w3.org/1999/xlink" width="200" height="200"><path d="M542.9248 906.7008H512c-46.2848 0-91.6992-7.936-134.8608-23.6544l-28.8768-10.496 20.992-57.7536 28.8768 10.496a332.8 332.8 0 0 0 113.8688 19.968h30.72l0.2048 61.44z m108.2368-23.9104l-26.0096-55.6544 27.8528-13.0048a333.68064 333.68064 0 0 0 94.72-66.4576l21.7088-21.7088 43.4688 43.4176-21.7088 21.7088a394.44992 394.44992 0 0 1-112.1792 78.6944l-27.8528 13.0048z m-396.3392-69.7856l-21.76-21.7088a393.66656 393.66656 0 0 1-78.7456-112.128l-13.0048-27.8016 55.6544-26.0608 13.0048 27.8016c16.4864 35.2256 38.8608 67.072 66.5088 94.72l21.76 21.7088-43.4176 43.4688z m617.6768-137.1136l-57.7536-20.992 10.496-28.8768a332.4928 332.4928 0 0 0 20.0192-114.0224v-31.488h61.44V512c0 46.3872-7.9872 91.8016-23.7056 135.0144l-10.496 28.8768z m-693.76-132.8128h-61.44v-30.72h30.72l-30.72-0.0512c0-46.5408 7.936-91.8528 23.552-134.9632l10.496-28.8768 57.7536 20.9408-10.496 28.8768a332.70784 332.70784 0 0 0-19.8656 113.6128v31.1808z m648.192-144.6912l-13.056-27.8016a331.9808 331.9808 0 0 0-66.6112-94.6176l-21.76-21.7088 43.3664-43.52 21.76 21.7088a394.24512 394.24512 0 0 1 78.848 112.0256l13.056 27.8016-55.6032 26.112zM254.3616 298.3424l-43.52-43.4176 21.7088-21.76a395.33568 395.33568 0 0 1 112.0768-78.7968l27.8016-13.056 26.0608 55.6544-27.8016 13.056c-35.2256 16.4864-67.072 38.912-94.6688 66.56l-21.6576 21.76z m400.0256-89.344l-28.8768-10.4448c-36.3008-13.1584-74.496-19.8144-113.5104-19.8144h-31.2832v-61.44h30.72v30.72l0.2048-30.72c46.5408 0 91.7504 7.8848 134.8096 23.5008l28.8768 10.4448-20.9408 57.7536z" fill="#656A70" p-id="15677"></path></svg>