<?xml version="1.0" standalone="no"?><!DOCTYPE svg PUBLIC "-//W3C//DTD SVG 1.1//EN" "http://www.w3.org/Graphics/SVG/1.1/DTD/svg11.dtd"><svg t="1776417143676" class="icon" viewBox="0 0 1024 1024" version="1.1" xmlns="http://www.w3.org/2000/svg" p-id="19147" xmlns:xlink="http://www.w3.org/1999/xlink" width="200" height="200"><path d="M755.87696997 50.98420513c79.25598448 0 141.5106296 62.27255998 141.5106296 141.51062814v396.24409268c0 79.25598448-62.27255998 141.5106296-141.5106296 141.51062962H246.41004231c-79.25598448 0-141.5106296-62.27255998-141.51062812-141.51062962V192.51274813c0-79.25598448 62.27255998-141.5106296 141.51062812-141.51062814h509.46692766z m0 56.61141748H246.41004231c-45.28913397 0-80.54586508 32.60531051-84.50508112 76.53290305l-0.39412952 8.38422247v396.24409269c0 45.28913397 32.60531051 80.54586508 76.53290304 84.52299741l8.38422244 0.39412955h509.46692913c45.28913397 0 80.54586508-32.60531051 84.50508113-76.53290452l0.39412953-8.38422244V192.51274813c0-45.28913397-32.60531051-80.54586508-76.53290303-84.50508113l-8.38422394-0.41204439zM373.76781644 447.22829785v56.61141747h-56.61141749v-56.61141747h56.61141749z m367.95629954 0v56.61141747H430.37923539v-56.61141747h311.34488059zM317.17431529 277.41196021v56.61141752h-56.61141897V277.41196021h56.61141897z m396.24409268 0v56.61141752H373.76781644V277.41196021h339.65059153z m0 0" p-id="19148" fill="#ffffff"></path></svg>