<?xml version="1.0" standalone="no"?><!DOCTYPE svg PUBLIC "-//W3C//DTD SVG 1.1//EN" "http://www.w3.org/Graphics/SVG/1.1/DTD/svg11.dtd"><svg t="1776416723272" class="icon" viewBox="0 0 1117 1024" version="1.1" xmlns="http://www.w3.org/2000/svg" p-id="12579" xmlns:xlink="http://www.w3.org/1999/xlink" width="218.1640625" height="200"><path d="M296.378182 33.349818L472.413091 209.454545h172.218182l176.081454-176.034909a54.341818 54.341818 0 0 1 76.846546 76.823273L798.254545 209.454545h113.291637a190.068364 190.068364 0 0 1 190.045091 190.068364v434.408727A190.068364 190.068364 0 0 1 911.522909 1024H205.568a190.068364 190.068364 0 0 1-190.045091-190.045091V399.499636A190.068364 190.068364 0 0 1 205.568 209.454545h113.221818L219.531636 110.149818a54.318545 54.318545 0 1 1 76.846546-76.846545v0.046545z m615.144727 284.718546H205.568A81.454545 81.454545 0 0 0 124.509091 391.68l-0.395636 7.819636v434.408728a81.454545 81.454545 0 0 0 73.634909 81.082181l7.819636 0.395637h705.954909a81.454545 81.454545 0 0 0 81.058909-73.658182l0.395637-7.796364V399.499636a81.454545 81.454545 0 0 0-81.454546-81.454545z m-570.181818 162.909091A54.295273 54.295273 0 0 1 395.636364 535.272727v108.613818a54.318545 54.318545 0 0 1-108.613819 0V535.272727a54.295273 54.295273 0 0 1 54.318546-54.295272z m434.408727 0A54.295273 54.295273 0 0 1 830.068364 535.272727v108.613818a54.295273 54.295273 0 0 1-108.613819 0V535.272727a54.295273 54.295273 0 0 1 54.295273-54.295272z" fill="#666666" p-id="12580"></path></svg>