<?xml version="1.0" standalone="no"?><!DOCTYPE svg PUBLIC "-//W3C//DTD SVG 1.1//EN" "http://www.w3.org/Graphics/SVG/1.1/DTD/svg11.dtd"><svg t="1776417125589" class="icon" viewBox="0 0 1024 1024" version="1.1" xmlns="http://www.w3.org/2000/svg" p-id="18847" xmlns:xlink="http://www.w3.org/1999/xlink" width="200" height="200"><path d="M700.608 454.784a64 64 0 0 1 0 114.432l-288 128A64 64 0 0 1 320 640V384.064a64 64 0 0 1 92.608-57.216l288 127.936zM672 512L384 384.064V640l288-128z" p-id="18848" fill="#ffffff"></path><path d="M64 192a64 64 0 0 1 64-64h768a64 64 0 0 1 64 64v640a64 64 0 0 1-64 64H128a64 64 0 0 1-64-64V192z m64 640h768V192H128v640z" p-id="18849" fill="#ffffff"></path></svg>