<?xml version="1.0" standalone="no"?><!DOCTYPE svg PUBLIC "-//W3C//DTD SVG 1.1//EN" "http://www.w3.org/Graphics/SVG/1.1/DTD/svg11.dtd"><svg t="1776416159601" class="icon" viewBox="0 0 1025 1024" version="1.1" xmlns="http://www.w3.org/2000/svg" p-id="4824" xmlns:xlink="http://www.w3.org/1999/xlink" width="200.1953125" height="200"><path d="M896.517333 938.666667H128.517333a128 128 0 0 1-128-128V213.333333a128 128 0 0 1 128-128h768a128 128 0 0 1 128 128v597.333334a128 128 0 0 1-128 128zM128.517333 170.666667a42.666667 42.666667 0 0 0-42.666666 42.666666v597.333334a42.666667 42.666667 0 0 0 42.666666 42.666666h768a42.666667 42.666667 0 0 0 42.666667-42.666666V213.333333a42.666667 42.666667 0 0 0-42.666667-42.666666z" fill="#ffffff" p-id="4825"></path><path d="M512.517333 542.933333a128 128 0 0 1-61.226666-15.786666L21.850667 293.546667a42.666667 42.666667 0 1 1 42.666666-75.093334L491.184 452.266667a42.666667 42.666667 0 0 0 40.96 0L960.517333 218.453333a42.666667 42.666667 0 0 1 42.666667 75.093334l-428.586667 234.666666a128 128 0 0 1-62.08 14.72z" fill="#ffffff" p-id="4826"></path></svg>