<?xml version="1.0" standalone="no"?><!DOCTYPE svg PUBLIC "-//W3C//DTD SVG 1.1//EN" "http://www.w3.org/Graphics/SVG/1.1/DTD/svg11.dtd"><svg t="1776416631732" class="icon" viewBox="0 0 1140 1024" version="1.1" xmlns="http://www.w3.org/2000/svg" p-id="6195" xmlns:xlink="http://www.w3.org/1999/xlink" width="222.65625" height="200"><path d="M1067.290531 388.421818a54.365091 54.365091 0 0 1-27.182546-6.772363L580.587985 115.246545a44.381091 44.381091 0 0 0-43.915636 0L77.082531 381.300364a53.480727 53.480727 0 0 1-70.283636-14.941091c-14.103273-21.341091-5.352727-49.198545 17.826909-62.673455L531.575622 10.333091a54.970182 54.970182 0 0 1 54.365091 0l507.112727 293.492364c22.946909 13.591273 31.650909 40.773818 17.780364 62.184727a51.572364 51.572364 0 0 1-43.543273 22.434909z" fill="#656A70" p-id="6196"></path><path d="M843.104349 1020.858182H274.225804a129.117091 129.117091 0 0 1-129.117091-129.117091V438.132364a47.569455 47.569455 0 1 1 95.138909 0v453.329454a33.978182 33.978182 0 0 0 33.978182 33.978182h568.878545a33.978182 33.978182 0 0 0 33.978182-33.978182v-453.352727a47.592727 47.592727 0 0 1 95.138909 0v453.352727a129.117091 129.117091 0 0 1-129.117091 129.396364z" fill="#656A70" p-id="6197"></path><path d="M558.618531 825.483636c-79.220364 0-141.265455-51.106909-141.265455-116.200727a40.820364 40.820364 0 0 1 69.585455-28.858182 40.773818 40.773818 0 0 1 11.962182 28.858182c0 16.290909 25.553455 34.676364 59.717818 34.676364 34.210909 0 59.810909-18.385455 59.810909-34.676364a40.773818 40.773818 0 1 1 81.547636 0c0 65.233455-62.045091 116.200727-141.358545 116.200727z" fill="#656A70" p-id="6198"></path></svg>